{"title":"AmeriQua 2013 WEBRip 480p x264 AAC - VYTO [P2PDL]","uid":8889708,"size":375603668,"categoryP":"video","categoryS":"movies","magnet":"?xt=urn:btih:6eefec20a10a0db04615bdf8f21770fd3f0aa197&amp;dn=AmeriQua+2013+WEBRip+480p+x264+AAC+-+VYTO+%5BP2PDL%5D&amp;tr=udp%3A%2F%2Ftracker.openbittorrent.com%3A80&amp;tr=udp%3A%2F%2Fopen.demonii.com%3A1337&amp;tr=udp%3A%2F%2Ftracker.coppersurfer.tk%3A6969&amp;tr=udp%3A%2F%2Fexodus.desync.com%3A6969","seeders":1,"leechers":2,"uploader":"ValidusVyto","files":-1,"time":1378552640,"description":"_______ Visit us at our Semi Public Bittorrent Community ________\n  &lt;a href=&quot;\nhttp://p2pdl.com&quot; rel=&quot;nofollow&quot; target=&quot;_NEW&quot;&gt;\nhttp://p2pdl.com&lt;/a&gt;  _____________________________ &lt;a href=&quot; http://p2pdl.com&quot; rel=&quot;nofollow&quot; target=&quot;_NEW&quot;&gt; http://p2pdl.com&lt;/a&gt;                                                                                                   \n\n    \n                                                                                             \nAmeriQua 2013 WEBRip 480p x264 AAC - VYTO\n\n\nAlternate Title: EuroTrapped\nGenre: Comedy\nPlot: AmeriQua is the story of a lazy recent graduate, Charlie, whose rich parents cut\nhim off with a $5000 check and an ultimatum to start a life of independence and ...\nDirector: Marco Bellone, Giovanni Consonni\nStars:Bobby Kennedy III, Robert F. Kennedy III, Alec Baldwin.\nRated: R for language and some sexual content.\n\n\nIMDb: &lt;a href=&quot;\nhttp://www.imdb.com/title/tt1721672/&quot; rel=&quot;nofollow&quot; target=&quot;_NEW&quot;&gt;\nhttp://www.imdb.com/title/tt1721672/&lt;/a&gt;\n\n\nFormat                         : MPEG-4\nFile size                      : 350 MiB\nDuration                       : 1h 43mn\nOverall bit rate               : 475 Kbps\n\nVideo\nFormat                         : AVC\nBit rate                       : 433 Kbps\nWidth                          : 720 pixels\nHeight                         : 304 pixels\nDisplay aspect ratio           : 2.35:1\nFrame rate mode                : Constant\nFrame rate                     : 23.976 fps\nBit depth                      : 10 bits\nStream size                    : 319 MiB (91%)\nWriting library                : x264 core 138 r2358\n\nAudio\nFormat                         : AAC\nBit rate mode                  : Variable\nBit rate                       : 40.0 Kbps\nChannel(s)                     : 2 channels\nChannel positions              : Front: L R\nSampling rate                  : 48.0 KHz\nStream size                    : 29.5 MiB (8%)\nLanguage                       : English\n\nSubtitle                       : Yes(English)\n\nSource                         : 1080p.WEB-DL.H264-fiend\n &lt;a href=&quot;\nhttp://ultraimg.com/images/ZpBLY.png&quot; rel=&quot;nofollow&quot; target=&quot;_NEW&quot;&gt;\nhttp://ultraimg.com/images/ZpBLY.png&lt;/a&gt; &lt;a href=&quot;\nhttp://ultraimg.com/images/G7usm.png&quot; rel=&quot;nofollow&quot; target=&quot;_NEW&quot;&gt;\nhttp://ultraimg.com/images/G7usm.png&lt;/a&gt; &lt;a href=&quot;\nhttp://ultraimg.com/images/iNP3f.png&quot; rel=&quot;nofollow&quot; target=&quot;_NEW&quot;&gt;\nhttp://ultraimg.com/images/iNP3f.png&lt;/a&gt; &lt;a href=&quot;\nhttp://ultraimg.com/images/E7c3A.png&quot; rel=&quot;nofollow&quot; target=&quot;_NEW&quot;&gt;\nhttp://ultraimg.com/images/E7c3A.png&lt;/a&gt; &lt;a href=&quot;\nhttp://ultraimg.com/images/TSN4F.png&quot; rel=&quot;nofollow&quot; target=&quot;_NEW&quot;&gt;\nhttp://ultraimg.com/images/TSN4F.png&lt;/a&gt; &lt;a href=&quot;\nhttp://ultraimg.com/images/ilD29.png&quot; rel=&quot;nofollow&quot; target=&quot;_NEW&quot;&gt;\nhttp://ultraimg.com/images/ilD29.png&lt;/a&gt;\n\n\n----------------------------------------------------------------------------------------------------\n\n\nEncoded using revolutionary 10bit encoding, which enables us to provide you more crispier \nand sharper images at small sizes, just make sure you follow our instructions without a fault.\nRecommend to you to use latest version of VLC player. Install K-Lite Codec Pack or shark007 codecs\nin case of any kind of problem in playback (For non-VLC Media Player users). Alternatively, install\nCore AVC codecs, the fastest decoder that there is coupled with Community Center Codec Pack and play\non Windows Media Player Classic. Check sample to be sure.\nEnjoy!\n\nEncoder Notes:Looking For Early Access To Anything You Can Provide DVDScr, R5, DVDR, BluRay, Direct\nAudio, Music Releases and Seedboxes. We require dedicated servers, so as to do more \nand fast releases of movies.\nIf You Got anything to offer please contact us at &quot;&lt;a class=&quot;__cf_email__&quot; href=&quot;/cdn-cgi/l/email-protection&quot; data-cfemail=&quot;5a2a283d1a322f293274393537&quot;&gt;[email&amp;#160;protected]&lt;/a&gt;&lt;script cf-hash='f9e31' type=&quot;text/javascript&quot;&gt;\n/* &lt;![CDATA[ */!function(){try{var t=&quot;currentScript&quot;in document?document.currentScript:function(){for(var t=document.getElementsByTagName(&quot;script&quot;),e=t.length;e--;)if(t[e].getAttribute(&quot;cf-hash&quot;))return t[e]}();if(t&amp;&amp;t.previousSibling){var e,r,n,i,c=t.previousSibling,a=c.getAttribute(&quot;data-cfemail&quot;);if(a){for(e=&quot;&quot;,r=parseInt(a.substr(0,2),16),n=2;a.length-n;n+=2)i=parseInt(a.substr(n,2),16)^r,e+=String.fromCharCode(i);e=document.createTextNode(e),c.parentNode.replaceChild(e,c)}}}catch(u){}}();/* ]]&gt; */&lt;/script&gt;&quot;.\n\nFace book Fan Page:  \nSearch P2PDL on FB and hit like!!!\n\nFor more of our team uploads visit @                                      &lt;a href=&quot;\nhttp://thepiratebay.se/user/vitamin_x&quot; rel=&quot;nofollow&quot; target=&quot;_NEW&quot;&gt;\nhttp://thepiratebay.se/user/vitamin_x&lt;/a&gt;\t","torrent":{"xt":"urn:btih:6eefec20a10a0db04615bdf8f21770fd3f0aa197","amp;dn":"AmeriQua+2013+WEBRip+480p+x264+AAC+-+VYTO+%5BP2PDL%5D","amp;tr":["udp%3A%2F%2Ftracker.openbittorrent.com%3A80","udp%3A%2F%2Fopen.demonii.com%3A1337","udp%3A%2F%2Ftracker.coppersurfer.tk%3A6969","udp%3A%2F%2Fexodus.desync.com%3A6969"],"infoHash":"6eefec20a10a0db04615bdf8f21770fd3f0aa197","infoHashBuffer":{"type":"Buffer","data":[110,239,236,32,161,10,13,176,70,21,189,248,242,23,112,253,63,10,161,151]},"announce":[],"urlList":[]}}